<?xml version="1.0" encoding="UTF-8" standalone="no"?>
<!DOCTYPE svg PUBLIC "-//W3C//DTD SVG 1.1//EN" "http://www.w3.org/Graphics/SVG/1.1/DTD/svg11.dtd">
<svg width="100%" height="100%" viewBox="0 0 20 20" version="1.1" xmlns="http://www.w3.org/2000/svg" xmlns:xlink="http://www.w3.org/1999/xlink" xml:space="preserve" xmlns:serif="http://www.serif.com/" style="fill-rule:evenodd;clip-rule:evenodd;stroke-linejoin:round;stroke-miterlimit:2;">
    <g transform="matrix(1,0,0,1,-2.2,-2.2)">
        <path d="M8,3C5.239,3 3,5.239 3,8L3,16C3,18.761 5.239,21 8,21L16,21C18.761,21 21,18.761 21,16L21,8C21,5.239 18.761,3 16,3L8,3ZM18,5C18.552,5 19,5.448 19,6C19,6.552 18.552,7 18,7C17.448,7 17,6.552 17,6C17,5.448 17.448,5 18,5ZM12,7C14.761,7 17,9.239 17,12C17,14.761 14.761,17 12,17C9.239,17 7,14.761 7,12C7,9.239 9.239,7 12,7ZM12,9C10.354,9 9,10.354 9,12C9,13.646 10.354,15 12,15C13.646,15 15,13.646 15,12C15,10.354 13.646,9 12,9Z" style="fill:rgb(1,0,255);fill-rule:nonzero;"/>
    </g>
</svg>
