<?xml version="1.0" encoding="UTF-8" standalone="no"?>
<!DOCTYPE svg PUBLIC "-//W3C//DTD SVG 1.1//EN" "http://www.w3.org/Graphics/SVG/1.1/DTD/svg11.dtd">
<svg width="100%" height="100%" viewBox="0 0 64 32" version="1.1" xmlns="http://www.w3.org/2000/svg" xmlns:xlink="http://www.w3.org/1999/xlink" xml:space="preserve" xmlns:serif="http://www.serif.com/" style="fill-rule:evenodd;clip-rule:evenodd;stroke-linecap:round;stroke-linejoin:round;">
    <g transform="matrix(1,0,0,1,-15.36,0)">
        <path d="M28.648,3.255C26.585,3.842 24.638,4.947 23.014,6.572C17.929,11.657 17.929,19.901 23.014,24.986C28.099,30.071 36.343,30.071 41.428,24.986C43.063,23.351 44.172,21.39 44.756,19.312M28.849,3.2C27.689,7.544 28.813,12.371 32.221,15.779C35.629,19.187 40.456,20.311 44.8,19.151" style="fill:none;fill-rule:nonzero;stroke:rgb(1,0,255);stroke-width:3.2px;"/>
    </g>
    <g transform="matrix(1,0,0,1,15.36,0)">
        <path d="M39.04,23.04L40.96,24.96M42.24,16L44.8,16M24.96,8.96L23.04,7.04M39.04,8.96L40.96,7.04M24.96,23.04L23.04,24.96M19.2,16L21.76,16M32,3.2L32,5.76M32,26.24L32,28.8M37.12,16C37.12,18.828 34.828,21.12 32,21.12C29.172,21.12 26.88,18.828 26.88,16C26.88,13.172 29.172,10.88 32,10.88C34.828,10.88 37.12,13.172 37.12,16Z" style="fill:none;fill-rule:nonzero;stroke:rgb(1,0,255);stroke-width:3.2px;"/>
    </g>
</svg>
